<?xml version="1.0" encoding="UTF-8" standalone="no"?>
<!DOCTYPE svg PUBLIC "-//W3C//DTD SVG 1.1//EN" "http://www.w3.org/Graphics/SVG/1.1/DTD/svg11.dtd">
<svg width="100%" height="100%" viewBox="0 0 1280 800" version="1.1" xmlns="http://www.w3.org/2000/svg" xmlns:xlink="http://www.w3.org/1999/xlink" xml:space="preserve" xmlns:serif="http://www.serif.com/" style="fill-rule:evenodd;clip-rule:evenodd;stroke-linejoin:round;stroke-miterlimit:1.41421;">
    <g transform="matrix(1,0,0,1,0,-0.524317)">
        <path d="M640.578,250.109L640.578,105.73C802.83,106.042 934.46,237.865 934.46,400.189C934.46,562.513 802.83,694.336 640.578,694.648L640.578,551.609C687.648,551.209 725.793,483.814 725.793,400.859C725.793,317.904 687.648,250.508 640.578,250.109Z" style="fill:url(#_Linear1);"/>
        <path d="M639.422,250.113C592.496,250.809 554.522,318.089 554.522,400.859C554.522,483.629 592.496,550.908 639.422,551.605M639.422,105.73L639.422,694.648C477.17,694.336 345.54,562.513 345.54,400.189C345.54,237.865 477.17,106.042 639.422,105.73Z" style="fill:url(#_Linear2);"/>
        <path d="M824.566,400.859C831.306,423.411 834.963,447.59 834.963,472.736C834.963,595.583 747.674,695.319 640.157,695.319C532.641,695.319 445.352,595.583 445.352,472.736C445.352,447.59 449.009,423.411 455.749,400.859C481.935,488.481 554.65,551.564 640.157,551.564C725.665,551.564 798.38,488.481 824.566,400.859Z" style="fill:url(#_Linear3);"/>
        <path d="M642.708,250.173C815.708,129.321 844.764,250.55 824.566,400.859C798.641,487.608 727.109,550.306 642.708,551.545C688.794,549.167 725.793,482.559 725.793,400.859C725.793,319.158 688.794,252.551 642.708,250.173Z" style="fill:url(#_Linear4);"/>
        <path d="M637.607,250.173C553.206,251.412 481.674,314.109 455.749,400.859C449.009,378.306 445.352,354.128 445.352,328.981C445.352,206.135 532.641,106.399 640.157,106.399C747.674,106.399 834.963,206.135 834.963,328.981C834.963,354.128 831.306,378.306 824.566,400.859C798.641,314.109 727.109,251.412 642.708,250.173C641.861,250.129 641.011,250.107 640.157,250.107C639.304,250.107 638.454,250.129 637.607,250.173Z" style="fill:url(#_Linear5);"/>
        <path d="M637.607,250.173C635.84,250.264 634.087,250.449 632.349,250.727L632.25,250.743L632.123,250.764L631.947,250.792L631.814,250.815L631.719,250.831L631.589,250.854L631.407,250.886L631.279,250.909L631.189,250.925L631.055,250.951L630.868,250.985L630.746,251.009L630.66,251.025L630.523,251.053L630.33,251.091L630.213,251.115L630.132,251.131L629.991,251.161L629.793,251.202L629.682,251.226L629.605,251.242L629.461,251.274L629.257,251.319L629.152,251.343L629.079,251.359L628.932,251.394L628.722,251.442L628.622,251.466L628.554,251.482L628.404,251.519L628.188,251.571L628.094,251.594L628.03,251.61L627.877,251.649L627.655,251.705L627.566,251.729L627.507,251.744L627.352,251.785L627.123,251.845L627.04,251.868L626.985,251.883L626.827,251.927L626.593,251.991L626.514,252.014L626.465,252.027L626.305,252.074L626.063,252.143L625.99,252.165L625.945,252.178L625.783,252.226L625.534,252.3L625.466,252.321L625.426,252.333L625.264,252.384L625.007,252.463L624.944,252.483L624.908,252.495L624.746,252.547L624.48,252.632L624.423,252.651L624.391,252.661L624.23,252.715L623.955,252.806L623.903,252.824L623.876,252.833L623.716,252.888L623.431,252.986L623.384,253.003L623.361,253.011L623.206,253.066L622.908,253.172L622.866,253.187L622.848,253.194L622.699,253.249L622.386,253.363L622.349,253.377L622.336,253.382L622.198,253.434L621.866,253.56L621.833,253.572L621.824,253.576L621.706,253.622L621.346,253.762L621.319,253.773L621.314,253.775L621.231,253.808L620.828,253.97L620.806,253.979L620.805,253.979L620.799,253.982C619.967,254.321 619.14,254.681 618.317,255.063L618.278,255.081L618.277,255.081L618.254,255.092L617.877,255.27L617.776,255.317L617.77,255.32L617.743,255.332L617.405,255.496L617.276,255.558L617.265,255.563L617.233,255.578L616.921,255.733L616.776,255.804L616.761,255.812L616.725,255.83L616.432,255.978L616.278,256.056L616.259,256.066L616.218,256.087L615.94,256.231L615.781,256.313L615.757,256.325L615.712,256.349L615.447,256.489L615.286,256.575L615.257,256.59L615.207,256.616L614.954,256.754L614.791,256.842L614.758,256.86L614.704,256.889L614.46,257.024L614.298,257.114L614.261,257.135L614.202,257.167L613.967,257.3L613.806,257.391L613.765,257.415L613.701,257.451L613.475,257.582L613.316,257.673L613.27,257.7L613.202,257.739L612.983,257.868L612.826,257.961L612.776,257.99L612.704,258.033L612.493,258.16L612.338,258.253L612.284,258.286L612.207,258.332L612.003,258.458L611.852,258.55L611.793,258.587L611.712,258.637L611.515,258.76L611.366,258.853L611.304,258.893L611.218,258.946L611.027,259.068L610.882,259.16L610.816,259.203L610.726,259.261L610.541,259.381L610.4,259.473L610.329,259.519L610.235,259.581L610.056,259.699L609.918,259.79L609.844,259.84L609.745,259.905L609.573,260.022L609.438,260.112L609.36,260.166L609.257,260.235L609.091,260.35L608.96,260.439L608.877,260.497L608.77,260.571L608.61,260.683L608.483,260.771L608.396,260.833L608.285,260.911L608.13,261.021L608.007,261.108L607.916,261.174L607.801,261.256L607.652,261.365L607.533,261.45L607.438,261.519L607.319,261.606L607.175,261.713L607.06,261.797L606.962,261.87L606.838,261.962L606.699,262.066L606.588,262.148L606.486,262.226L606.358,262.322L606.225,262.424L606.118,262.505L606.012,262.586L605.88,262.687L605.752,262.787L605.65,262.866L605.54,262.951L605.404,263.057L605.281,263.154L605.183,263.231L605.069,263.322L604.929,263.433L604.811,263.527L604.717,263.602L604.6,263.697L604.456,263.813L604.343,263.904L604.253,263.977L604.132,264.076L603.984,264.198L603.876,264.287L603.79,264.357L603.666,264.461L603.514,264.587L603.411,264.674L603.329,264.742L603.202,264.85L603.045,264.982L602.947,265.066L602.869,265.132L602.739,265.244L602.578,265.382L602.485,265.462L602.411,265.526L602.277,265.643L602.112,265.786L602.024,265.864L601.955,265.925L601.817,266.046L601.648,266.195L601.565,266.27L601.5,266.328L601.359,266.454L601.186,266.609L601.108,266.681L601.046,266.736L600.902,266.867L600.725,267.028L600.651,267.096L600.594,267.149L600.447,267.284L600.266,267.452L600.197,267.516L600.144,267.566L599.994,267.706L599.808,267.88L599.744,267.941L599.695,267.988L599.543,268.132L599.353,268.313L599.293,268.371L599.248,268.414L599.093,268.563L598.898,268.751L598.843,268.805L598.802,268.845L598.645,268.999L598.446,269.193L598.395,269.244L598.358,269.28L598.199,269.438L597.995,269.64L597.949,269.687L597.916,269.72L597.755,269.882L597.546,270.092L597.504,270.135L597.475,270.164L597.313,270.33L597.099,270.548L597.061,270.587L597.036,270.613L596.873,270.781L596.653,271.009L596.62,271.044L596.598,271.066L596.436,271.237L596.209,271.475L596.18,271.505L596.162,271.524L596.002,271.695L595.767,271.945L595.742,271.971L595.728,271.986L595.571,272.155L595.326,272.419L595.305,272.442L595.296,272.452L595.147,272.615L594.887,272.899L594.871,272.917L594.865,272.923L594.734,273.068L594.45,273.382L594.438,273.396L594.436,273.398L594.357,273.487C593.852,274.051 593.35,274.625 592.853,275.207L592.737,275.342L592.733,275.346L592.72,275.362L592.462,275.667L592.317,275.838L592.309,275.847L592.292,275.868L592.054,276.152L591.898,276.339L591.887,276.353L591.866,276.378L591.642,276.649L591.481,276.844L591.466,276.863L591.441,276.893L591.228,277.155L591.066,277.354L591.047,277.377L591.019,277.412L590.814,277.666L590.653,277.867L590.63,277.896L590.598,277.935L590.401,278.183L590.241,278.385L590.215,278.418L590.179,278.463L589.99,278.705L589.831,278.907L589.801,278.945L589.762,278.995L589.579,279.232L589.424,279.433L589.39,279.477L589.347,279.532L589.17,279.764L589.018,279.963L588.98,280.012L588.934,280.072L588.763,280.3L588.613,280.497L588.573,280.552L588.523,280.617L588.357,280.84L588.211,281.035L588.167,281.095L588.114,281.166L587.953,281.385L587.81,281.578L587.763,281.643L587.706,281.72L587.551,281.934L587.412,282.124L587.361,282.195L587.301,282.277L587.15,282.487L587.015,282.674L586.96,282.751L586.897,282.839L586.752,283.044L586.62,283.229L586.562,283.311L586.496,283.405L586.355,283.606L586.227,283.787L586.166,283.876L586.096,283.975L585.96,284.172L585.836,284.35L585.772,284.444L585.699,284.549L585.567,284.741L585.447,284.916L585.379,285.016L585.303,285.128L585.176,285.315L585.06,285.487L584.989,285.593L584.909,285.71L584.787,285.893L584.675,286.061L584.6,286.173L584.518,286.296L584.4,286.475L584.291,286.639L584.214,286.757L584.128,286.887L584.015,287.061L583.91,287.221L583.829,287.346L583.741,287.481L583.632,287.651L583.531,287.807L583.447,287.938L583.355,288.08L583.251,288.245L583.153,288.397L583.066,288.534L582.972,288.683L582.871,288.843L582.778,288.991L582.688,289.134L582.591,289.289L582.494,289.445L582.404,289.588L582.312,289.738L582.212,289.9L582.119,290.05L582.033,290.19L581.937,290.346L581.834,290.514L581.746,290.66L581.664,290.795L581.565,290.958L581.459,291.132L581.375,291.273L581.296,291.404L581.195,291.574L581.086,291.754L581.006,291.89L580.931,292.016L580.827,292.193L580.716,292.381L580.639,292.511L580.568,292.633L580.461,292.816L580.347,293.011L580.274,293.136L580.206,293.253L580.097,293.443L579.98,293.644L579.912,293.765L579.847,293.876L579.735,294.074L579.616,294.282L579.551,294.397L579.49,294.504L579.375,294.709L579.254,294.923L579.192,295.034L579.135,295.135L579.018,295.347L578.894,295.569L578.836,295.673L578.782,295.77L578.662,295.989L578.536,296.218L578.482,296.317L578.432,296.408L578.309,296.635L578.18,296.871L578.13,296.964L578.083,297.05L577.958,297.284L577.827,297.527L577.78,297.615L577.737,297.696L577.609,297.937L577.476,298.187L577.432,298.27L577.392,298.345L577.262,298.594L577.127,298.851L577.087,298.928L577.05,298.998L576.917,299.254L576.78,299.519L576.743,299.59L576.71,299.654L576.575,299.918L576.435,300.19L576.402,300.255L576.372,300.314L576.234,300.586L576.093,300.865L576.063,300.924L576.036,300.977L575.896,301.257L575.753,301.543L575.726,301.597L575.703,301.644L575.561,301.932L575.415,302.226L575.392,302.273L575.372,302.314L575.227,302.611L575.08,302.911L575.06,302.953L575.042,302.988L574.895,303.293L574.747,303.601L574.73,303.636L574.716,303.665L574.566,303.979L574.416,304.293L574.402,304.323L574.391,304.346L574.238,304.67L574.087,304.99L574.077,305.013L574.068,305.03L573.912,305.365L573.761,305.69L573.753,305.706L573.748,305.717L573.587,306.068L573.437,306.393L573.433,306.403L573.43,306.408L573.254,306.795L573.116,307.1L573.008,307.34L572.801,307.8L572.8,307.802L572.797,307.81L572.655,308.129L572.49,308.501L572.486,308.51L572.48,308.524L572.338,308.849L572.182,309.205L572.175,309.22L572.166,309.241L572.025,309.566L571.875,309.912L571.865,309.935L571.854,309.962L571.716,310.284L571.571,310.623L571.559,310.652L571.544,310.686L571.41,311.004L571.269,311.336L571.254,311.373L571.237,311.413L571.106,311.727L570.97,312.054L570.952,312.097L570.932,312.143L570.805,312.453L570.672,312.774L570.652,312.824L570.63,312.877L570.506,313.183L570.378,313.497L570.355,313.554L570.33,313.615L570.21,313.915L570.085,314.224L570.06,314.288L570.033,314.355L569.916,314.651L569.795,314.954L569.767,315.025L569.738,315.099L569.624,315.39L569.508,315.687L569.477,315.765L569.446,315.846L569.335,316.131L569.222,316.423L569.19,316.508L569.156,316.596L569.049,316.876L568.94,317.162L568.905,317.255L568.868,317.35L568.765,317.624L568.659,317.904L568.622,318.004L568.583,318.107L568.483,318.376L568.381,318.65L568.342,318.757L568.301,318.867L568.204,319.13L568.106,319.398L568.064,319.513L568.021,319.63L567.928,319.887L567.833,320.149L567.789,320.272L567.744,320.396L567.654,320.648L567.562,320.904L567.516,321.034L567.469,321.165L567.382,321.411L567.294,321.661L567.246,321.799L567.197,321.938L567.113,322.178L567.028,322.422L566.978,322.567L566.927,322.713L566.847,322.948L566.765,323.185L566.713,323.338L566.66,323.492L566.583,323.72L566.504,323.951L566.45,324.113L566.396,324.273L566.322,324.496L566.246,324.721L566.19,324.89L566.134,325.058L566.063,325.274L565.99,325.493L565.933,325.67L565.875,325.846L565.807,326.056L565.737,326.268L565.678,326.453L565.618,326.636L565.553,326.84L565.487,327.046L565.425,327.239L565.364,327.43L565.302,327.627L565.239,327.827L565.176,328.028L565.113,328.227L565.054,328.417L564.993,328.61L564.928,328.82L564.864,329.026L564.808,329.21L564.75,329.397L564.684,329.615L564.618,329.829L564.565,330.006L564.51,330.186L564.442,330.412L564.375,330.634L564.324,330.805L564.272,330.978L564.203,331.213L564.134,331.442L564.086,331.607L564.037,331.773L563.966,332.016L563.896,332.253L563.851,332.411L563.804,332.57L563.732,332.822L563.661,333.067L563.618,333.218L563.575,333.371L563.501,333.631L563.429,333.884L563.388,334.028L563.347,334.174L563.272,334.443L563.199,334.704L563.161,334.841L563.123,334.979L563.046,335.258L562.972,335.526L562.937,335.656L562.901,335.788L562.823,336.075L562.748,336.351L562.715,336.475L562.681,336.599L562.602,336.895L562.526,337.179L562.496,337.295L562.465,337.413L562.384,337.718L562.308,338.01L562.279,338.119L562.251,338.229L562.169,338.544L562.092,338.843L562.066,338.945L562.039,339.048L561.957,339.372L561.879,339.679L561.855,339.774L561.831,339.869L561.747,340.204L561.668,340.518L561.647,340.605L561.625,340.693L561.54,341.038L561.461,341.359L561.441,341.439L561.422,341.52L561.336,341.875L561.256,342.203L561.239,342.276L561.221,342.349L561.134,342.715L561.054,343.05L561.039,343.115L561.023,343.181L560.935,343.558L560.855,343.899L560.842,343.957L560.828,344.015L560.739,344.405L560.659,344.751L560.648,344.801L560.636,344.852L560.545,345.255L560.466,345.605L560.456,345.648L560.447,345.691L560.354,346.109L560.276,346.462L560.268,346.498L560.26,346.533L560.165,346.969L560.088,347.321L560.082,347.349L560.076,347.377L559.978,347.837L559.904,348.183L559.899,348.204L559.895,348.224L559.79,348.723L559.722,349.048L559.719,349.06L559.717,349.073L559.595,349.666L559.543,349.914L559.542,349.92C559.484,350.206 559.426,350.493 559.368,350.78L559.367,350.784L559.326,350.995L559.199,351.634L559.197,351.644L559.195,351.656L559.133,351.973L559.032,352.492L559.028,352.511L559.025,352.53L558.959,352.876L558.868,353.353L558.863,353.379L558.858,353.406L558.791,353.763L558.707,354.216L558.7,354.251L558.694,354.285L558.628,354.646L558.548,355.081L558.541,355.124L558.533,355.167L558.468,355.527L558.393,355.948L558.384,356L558.375,356.051L558.312,356.408L558.24,356.818L558.23,356.878L558.22,356.937L558.159,357.291L558.091,357.69L558.079,357.758L558.068,357.825L558.009,358.175L557.944,358.564L557.932,358.64L557.919,358.715L557.863,359.061L557.8,359.441L557.787,359.525L557.773,359.608L557.719,359.948L557.659,360.319L557.645,360.412L557.63,360.503L557.578,360.838L557.522,361.2L557.506,361.301L557.49,361.401L557.441,361.729L557.387,362.083L557.37,362.193L557.354,362.3L557.306,362.623L557.255,362.968L557.237,363.086L557.22,363.202L557.175,363.518L557.126,363.855L557.108,363.982L557.09,364.106L557.046,364.415L557,364.744L556.981,364.88L556.962,365.012L556.921,365.315L556.877,365.635L556.857,365.779L556.838,365.92L556.798,366.216L556.757,366.528L556.737,366.681L556.717,366.831L556.679,367.12L556.64,367.423L556.619,367.585L556.599,367.743L556.563,368.025L556.526,368.321L556.505,368.492L556.484,368.658L556.45,368.932L556.415,369.22L556.393,369.4L556.372,369.574L556.34,369.842L556.307,370.121L556.285,370.31L556.263,370.493L556.233,370.753L556.202,371.025L556.18,371.222L556.158,371.414L556.13,371.666L556.1,371.93L556.078,372.136L556.056,372.336L556.029,372.582L556.002,372.837L555.979,373.052L555.957,373.261L555.932,373.499L555.906,373.746L555.883,373.971L555.861,374.188L555.838,374.418L555.813,374.657L555.791,374.891L555.768,375.116L555.747,375.339L555.724,375.57L555.701,375.813L555.679,376.047L555.659,376.262L555.638,376.484L555.615,376.737L555.593,376.979L555.574,377.187L555.555,377.401L555.532,377.662L555.51,377.914L555.493,378.113L555.475,378.319L555.452,378.59L555.43,378.85L555.414,379.041L555.398,379.239L555.375,379.52L555.354,379.788L555.339,379.972L555.324,380.161L555.302,380.451L555.281,380.728L555.267,380.904L555.254,381.085L555.232,381.384L555.211,381.67L555.199,381.837L555.186,382.01L555.165,382.319L555.144,382.613L555.134,382.773L555.122,382.937L555.101,383.256L555.081,383.559L555.071,383.71L555.061,383.866L555.041,384.195L555.021,384.506L555.013,384.649L555.003,384.797L554.984,385.135L554.965,385.455L554.957,385.59L554.949,385.729L554.93,386.078L554.911,386.405L554.905,386.532L554.898,386.663L554.879,387.022L554.862,387.357L554.856,387.476L554.85,387.598L554.832,387.968L554.815,388.311L554.81,388.422L554.805,388.535L554.788,388.916L554.772,389.267L554.768,389.369L554.763,389.474L554.747,389.865L554.732,390.224L554.729,390.318L554.725,390.415L554.71,390.817L554.696,391.183L554.693,391.269L554.69,391.357L554.676,391.771L554.663,392.144L554.661,392.221L554.658,392.3L554.645,392.727L554.634,393.106L554.632,393.175L554.63,393.245L554.618,393.685L554.608,394.07L554.606,394.13L554.605,394.192L554.594,394.646L554.585,395.035L554.584,395.087L554.583,395.14L554.574,395.61L554.566,396.002L554.565,396.045L554.564,396.089L554.556,396.579L554.55,396.97L554.55,397.005L554.549,397.04L554.543,397.554L554.538,397.94L554.538,397.966L554.537,397.993L554.532,398.544L554.529,398.912L554.529,398.929L554.529,398.947L554.526,399.572L554.524,399.885L554.524,399.893C554.523,400.215 554.522,400.537 554.522,400.859C554.522,401.181 554.523,401.503 554.524,401.824L554.524,401.833L554.526,402.146L554.529,402.771L554.529,402.806L554.532,403.174L554.537,403.725L554.538,403.751L554.538,403.777L554.543,404.163L554.549,404.677L554.55,404.713L554.55,404.747L554.556,405.139L554.564,405.628L554.565,405.672L554.566,405.716L554.574,406.108L554.583,406.578L554.584,406.631L554.585,406.683L554.594,407.072L554.605,407.526L554.606,407.588L554.608,407.648L554.618,408.033L554.63,408.473L554.632,408.543L554.634,408.612L554.645,408.991L554.658,409.418L554.661,409.497L554.663,409.574L554.676,409.947L554.69,410.361L554.693,410.449L554.696,410.534L554.71,410.901L554.725,411.303L554.729,411.399L554.732,411.493L554.747,411.852L554.763,412.243L554.768,412.348L554.772,412.451L554.788,412.802L554.805,413.182L554.81,413.296L554.815,413.406L554.832,413.75L554.85,414.119L554.856,414.241L554.862,414.36L554.879,414.696L554.898,415.055L554.905,415.185L554.911,415.313L554.93,415.64L554.949,415.989L554.957,416.128L554.965,416.263L554.984,416.582L555.003,416.921L555.013,417.068L555.021,417.212L555.041,417.523L555.061,417.852L555.071,418.007L555.081,418.159L555.101,418.462L555.122,418.78L555.134,418.945L555.144,419.104L555.165,419.398L555.186,419.708L555.199,419.88L555.211,420.048L555.232,420.333L555.254,420.633L555.267,420.814L555.281,420.99L555.302,421.267L555.324,421.557L555.339,421.746L555.354,421.93L555.375,422.198L555.398,422.479L555.414,422.676L555.43,422.868L555.452,423.128L555.475,423.399L555.493,423.605L555.51,423.804L555.532,424.055L555.555,424.317L555.574,424.531L555.593,424.738L555.615,424.981L555.638,425.233L555.659,425.456L555.679,425.671L555.701,425.905L555.724,426.148L555.747,426.379L555.768,426.601L555.791,426.827L555.813,427.061L555.838,427.3L555.861,427.53L555.883,427.747L555.906,427.972L555.932,428.219L555.957,428.457L555.979,428.665L556.002,428.881L556.029,429.136L556.056,429.381L556.078,429.581L556.1,429.788L556.13,430.051L556.158,430.304L556.18,430.496L556.202,430.693L556.233,430.964L556.263,431.225L556.285,431.408L556.307,431.596L556.34,431.876L556.372,432.143L556.393,432.318L556.415,432.498L556.45,432.785L556.484,433.06L556.505,433.226L556.526,433.397L556.563,433.693L556.599,433.974L556.619,434.132L556.64,434.294L556.679,434.598L556.717,434.887L556.737,435.036L556.757,435.189L556.798,435.502L556.838,435.797L556.857,435.938L556.877,436.083L556.921,436.403L556.962,436.705L556.981,436.838L557,436.974L557.046,437.302L557.09,437.612L557.108,437.736L557.126,437.863L557.175,438.2L557.22,438.515L557.237,438.632L557.255,438.75L557.306,439.095L557.354,439.417L557.37,439.525L557.387,439.635L557.441,439.989L557.49,440.317L557.506,440.416L557.522,440.518L557.578,440.88L557.63,441.214L557.645,441.306L557.659,441.399L557.719,441.769L557.773,442.109L557.787,442.192L557.8,442.277L557.863,442.657L557.919,443.002L557.932,443.077L557.944,443.153L558.009,443.543L558.068,443.893L558.079,443.96L558.091,444.028L558.159,444.427L558.22,444.781L558.23,444.84L558.24,444.9L558.312,445.309L558.375,445.667L558.384,445.718L558.393,445.769L558.468,446.191L558.533,446.551L558.541,446.594L558.548,446.637L558.628,447.072L558.694,447.432L558.7,447.467L558.707,447.502L558.791,447.954L558.858,448.311L558.863,448.338L558.868,448.365L558.959,448.842L559.025,449.188L559.032,449.226L559.133,449.744L559.195,450.062L559.199,450.084L559.326,450.723L559.367,450.934L559.368,450.937C559.426,451.225 559.484,451.511 559.542,451.798L559.543,451.803L559.595,452.052L559.717,452.645L559.722,452.67L559.79,452.995L559.895,453.494L559.904,453.535L559.978,453.88L560.076,454.341L560.082,454.368L560.088,454.396L560.165,454.749L560.26,455.185L560.268,455.22L560.276,455.256L560.354,455.609L560.447,456.026L560.456,456.069L560.466,456.113L560.545,456.463L560.636,456.866L560.648,456.916L560.659,456.967L560.739,457.313L560.828,457.702L560.842,457.761L560.855,457.819L560.935,458.159L561.023,458.537L561.039,458.602L561.054,458.668L561.134,459.002L561.221,459.368L561.239,459.442L561.256,459.515L561.336,459.843L561.422,460.197L561.441,460.278L561.461,460.359L561.54,460.68L561.625,461.024L561.647,461.112L561.668,461.2L561.747,461.514L561.831,461.848L561.855,461.944L561.879,462.039L561.957,462.345L562.039,462.67L562.066,462.773L562.092,462.875L562.169,463.174L562.251,463.489L562.279,463.599L562.308,463.708L562.384,463.999L562.465,464.305L562.496,464.422L562.526,464.539L562.602,464.822L562.681,465.119L562.715,465.243L562.748,465.367L562.823,465.643L562.901,465.93L562.937,466.061L562.972,466.192L563.046,466.46L563.123,466.738L563.161,466.877L563.199,467.014L563.272,467.275L563.347,467.544L563.388,467.689L563.429,467.834L563.501,468.086L563.575,468.347L563.618,468.499L563.661,468.65L563.732,468.895L563.804,469.147L563.851,469.307L563.896,469.464L563.966,469.702L564.037,469.945L564.086,470.111L564.134,470.275L564.203,470.505L564.272,470.74L564.324,470.912L564.375,471.084L564.442,471.305L564.51,471.532L564.565,471.711L564.618,471.889L564.684,472.103L564.75,472.321L564.808,472.507L564.864,472.691L564.928,472.898L564.993,473.107L565.054,473.3L565.113,473.491L565.176,473.69L565.239,473.891L565.302,474.09L565.364,474.288L565.425,474.479L565.487,474.672L565.553,474.878L565.618,475.081L565.678,475.265L565.737,475.45L565.807,475.662L565.875,475.872L565.933,476.048L565.99,476.225L566.063,476.444L566.134,476.66L566.19,476.828L566.246,476.997L566.322,477.222L566.396,477.444L566.45,477.605L566.504,477.766L566.583,477.998L566.66,478.226L566.713,478.379L566.765,478.533L566.847,478.77L566.927,479.004L566.978,479.15L567.028,479.296L567.113,479.54L567.197,479.78L567.246,479.918L567.294,480.056L567.382,480.306L567.469,480.552L567.516,480.684L567.562,480.814L567.654,481.07L567.744,481.322L567.789,481.446L567.833,481.568L567.928,481.83L568.021,482.088L568.064,482.205L568.106,482.32L568.204,482.588L568.301,482.851L568.342,482.96L568.381,483.068L568.483,483.342L568.583,483.611L568.622,483.713L568.659,483.813L568.765,484.093L568.868,484.368L568.905,484.463L568.94,484.556L569.049,484.841L569.156,485.121L569.19,485.209L569.222,485.295L569.335,485.586L569.446,485.871L569.477,485.953L569.508,486.031L569.624,486.328L569.738,486.619L569.767,486.693L569.795,486.764L569.916,487.067L570.033,487.362L570.06,487.43L570.085,487.494L570.21,487.802L570.33,488.103L570.355,488.163L570.378,488.22L570.506,488.535L570.63,488.84L570.652,488.894L570.672,488.944L570.805,489.264L570.932,489.574L570.952,489.621L570.97,489.664L571.106,489.99L571.237,490.305L571.254,490.345L571.269,490.381L571.41,490.714L571.544,491.032L571.559,491.066L571.571,491.095L571.716,491.434L571.854,491.756L571.865,491.783L571.875,491.806L572.025,492.152L572.166,492.477L572.182,492.513L572.338,492.869L572.48,493.194L572.49,493.217L572.655,493.589L572.797,493.908L572.801,493.918L573.008,494.378L573.116,494.618L573.254,494.922L573.43,495.309L573.437,495.325L573.587,495.65L573.748,496L573.761,496.028L573.912,496.353L574.068,496.688L574.077,496.705L574.087,496.728L574.238,497.048L574.391,497.372L574.402,497.395L574.416,497.424L574.566,497.738L574.716,498.052L574.73,498.082L574.747,498.117L574.895,498.424L575.042,498.729L575.06,498.765L575.08,498.806L575.227,499.107L575.372,499.403L575.392,499.445L575.415,499.492L575.561,499.786L575.703,500.073L575.726,500.121L575.753,500.174L575.896,500.46L576.036,500.74L576.063,500.793L576.093,500.853L576.234,501.132L576.372,501.404L576.402,501.462L576.435,501.528L576.575,501.799L576.71,502.064L576.743,502.128L576.78,502.199L576.917,502.464L577.05,502.72L577.087,502.79L577.127,502.866L577.262,503.124L577.392,503.373L577.432,503.448L577.476,503.53L577.609,503.781L577.737,504.022L577.78,504.102L577.827,504.191L577.958,504.434L578.083,504.667L578.13,504.753L578.18,504.847L578.309,505.083L578.432,505.309L578.482,505.401L578.536,505.5L578.662,505.729L578.782,505.948L578.836,506.044L578.894,506.149L579.018,506.371L579.135,506.583L579.192,506.684L579.254,506.794L579.375,507.009L579.49,507.214L579.551,507.32L579.616,507.436L579.735,507.644L579.847,507.841L579.912,507.953L579.98,508.073L580.097,508.274L580.206,508.465L580.274,508.581L580.347,508.707L580.461,508.901L580.568,509.085L580.639,509.206L580.716,509.337L580.827,509.525L580.931,509.701L581.006,509.827L581.086,509.963L581.195,510.144L581.296,510.314L581.375,510.444L581.459,510.585L581.565,510.76L581.664,510.923L581.746,511.058L581.834,511.204L581.937,511.371L582.033,511.528L582.119,511.667L582.212,511.818L582.312,511.979L582.404,512.129L582.494,512.273L582.591,512.429L582.688,512.583L582.778,512.727L582.871,512.875L582.972,513.035L583.066,513.183L583.153,513.321L583.251,513.473L583.355,513.638L583.447,513.78L583.531,513.91L583.632,514.067L583.741,514.236L583.829,514.372L583.91,514.496L584.015,514.657L584.128,514.831L584.214,514.96L584.291,515.079L584.4,515.242L584.518,515.421L584.6,515.545L584.675,515.657L584.787,515.824L584.909,516.008L584.989,516.125L585.06,516.231L585.176,516.402L585.303,516.59L585.379,516.701L585.447,516.801L585.567,516.976L585.699,517.168L585.772,517.274L585.836,517.368L585.96,517.546L586.096,517.743L586.166,517.842L586.227,517.93L586.355,518.112L586.496,518.313L586.562,518.406L586.62,518.489L586.752,518.673L586.897,518.878L586.96,518.966L587.015,519.043L587.15,519.231L587.301,519.44L587.361,519.523L587.412,519.594L587.551,519.784L587.706,519.998L587.763,520.075L587.81,520.14L587.953,520.333L588.114,520.551L588.167,520.622L588.211,520.682L588.357,520.878L588.523,521.1L588.573,521.166L588.613,521.221L588.763,521.418L588.934,521.645L588.98,521.706L589.018,521.755L589.17,521.954L589.347,522.186L589.39,522.241L589.424,522.285L589.579,522.486L589.762,522.722L589.801,522.772L589.831,522.811L589.99,523.012L590.179,523.254L590.215,523.299L590.241,523.333L590.401,523.535L590.598,523.782L590.63,523.822L590.653,523.851L590.814,524.052L591.019,524.306L591.047,524.34L591.066,524.364L591.228,524.563L591.441,524.825L591.466,524.855L591.481,524.873L591.642,525.068L591.866,525.34L591.887,525.365L591.898,525.378L592.054,525.566L592.292,525.85L592.317,525.879L592.462,526.051L592.72,526.356L592.737,526.376L592.853,526.511C593.351,527.093 593.852,527.667 594.357,528.231L594.436,528.32L594.45,528.335L594.734,528.65L594.865,528.795L594.887,528.819L595.147,529.103L595.296,529.266L595.305,529.276L595.326,529.298L595.571,529.562L595.728,529.732L595.742,529.746L595.767,529.773L596.002,530.023L596.162,530.194L596.18,530.212L596.209,530.243L596.436,530.481L596.598,530.652L596.62,530.674L596.653,530.709L596.873,530.936L597.036,531.105L597.061,531.131L597.099,531.169L597.313,531.388L597.475,531.554L597.504,531.583L597.546,531.626L597.755,531.836L597.916,531.998L597.949,532.031L597.995,532.077L598.199,532.28L598.358,532.438L598.395,532.474L598.446,532.524L598.645,532.719L598.802,532.873L598.843,532.913L598.898,532.967L599.093,533.154L599.248,533.304L599.293,533.347L599.353,533.405L599.543,533.585L599.695,533.73L599.744,533.776L599.808,533.838L599.994,534.012L600.144,534.152L600.197,534.201L600.266,534.266L600.447,534.433L600.594,534.569L600.651,534.622L600.725,534.689L600.902,534.851L601.046,534.982L601.108,535.037L601.186,535.108L601.359,535.263L601.5,535.39L601.565,535.448L601.648,535.522L601.817,535.671L601.955,535.793L602.024,535.854L602.112,535.931L602.277,536.075L602.411,536.192L602.485,536.255L602.578,536.336L602.739,536.473L602.869,536.586L602.947,536.652L603.045,536.735L603.202,536.867L603.329,536.975L603.411,537.044L603.514,537.13L603.666,537.257L603.79,537.36L603.876,537.431L603.984,537.52L604.132,537.641L604.253,537.74L604.343,537.813L604.456,537.905L604.6,538.021L604.717,538.116L604.811,538.191L604.929,538.285L605.069,538.396L605.183,538.486L605.281,538.563L605.404,538.66L605.54,538.766L605.65,538.852L605.752,538.931L605.88,539.031L606.012,539.132L606.118,539.213L606.225,539.294L606.358,539.396L606.486,539.492L606.588,539.569L606.699,539.652L606.838,539.756L606.962,539.848L607.06,539.921L607.175,540.005L607.319,540.111L607.438,540.198L607.533,540.267L607.652,540.353L607.801,540.462L607.916,540.544L608.007,540.609L608.13,540.696L608.285,540.807L608.396,540.885L608.483,540.946L608.61,541.034L608.77,541.147L608.877,541.221L608.96,541.278L609.091,541.368L609.257,541.482L609.36,541.552L609.438,541.605L609.573,541.696L609.745,541.812L609.844,541.878L609.918,541.928L610.056,542.019L610.235,542.137L610.329,542.198L610.4,542.245L610.541,542.337L610.726,542.457L610.816,542.514L610.882,542.557L611.027,542.65L611.218,542.772L611.304,542.825L611.366,542.865L611.515,542.957L611.712,543.081L611.793,543.131L611.852,543.167L612.003,543.26L612.207,543.385L612.284,543.432L612.338,543.465L612.493,543.557L612.704,543.684L612.776,543.727L612.826,543.757L612.983,543.849L613.202,543.978L613.27,544.018L613.316,544.044L613.475,544.136L613.701,544.267L613.765,544.303L613.806,544.327L613.967,544.417L614.202,544.55L614.261,544.583L614.298,544.604L614.46,544.693L614.704,544.828L614.758,544.858L614.791,544.876L614.954,544.964L615.207,545.101L615.257,545.128L615.286,545.143L615.447,545.228L615.712,545.369L615.757,545.392L615.781,545.405L615.94,545.487L616.218,545.631L616.259,545.652L616.278,545.662L616.432,545.74L616.725,545.888L616.761,545.906L616.776,545.913L616.921,545.985L617.233,546.139L617.265,546.155L617.276,546.16L617.405,546.222L617.743,546.385L617.776,546.401L617.877,546.448L618.254,546.626L618.317,546.655C619.14,547.036 619.967,547.397 620.799,547.736L620.828,547.748L621.231,547.909L621.314,547.943L621.346,547.955L621.706,548.096L621.824,548.142L621.833,548.145L621.866,548.158L622.198,548.283L622.336,548.336L622.349,548.341L622.386,548.355L622.699,548.469L622.848,548.524L622.866,548.53L622.908,548.546L623.206,548.651L623.361,548.707L623.384,548.715L623.431,548.731L623.716,548.829L623.876,548.884L623.903,548.893L623.955,548.911L624.23,549.002L624.391,549.056L624.423,549.067L624.48,549.086L624.746,549.171L624.908,549.223L624.944,549.234L625.007,549.254L625.264,549.334L625.426,549.384L625.466,549.396L625.534,549.417L625.783,549.492L625.945,549.54L625.99,549.553L626.063,549.575L626.305,549.644L626.465,549.69L626.514,549.704L626.593,549.726L626.827,549.791L626.985,549.835L627.04,549.849L627.123,549.872L627.352,549.933L627.507,549.974L627.566,549.989L627.655,550.013L627.877,550.069L628.03,550.108L628.094,550.123L628.188,550.147L628.404,550.199L628.554,550.236L628.622,550.252L628.722,550.276L628.932,550.324L629.079,550.358L629.152,550.374L629.257,550.399L629.461,550.443L629.605,550.475L629.682,550.491L629.793,550.516L629.991,550.557L630.132,550.587L630.213,550.603L630.33,550.627L630.523,550.665L630.66,550.692L630.746,550.708L630.868,550.732L631.055,550.767L631.189,550.792L631.279,550.808L631.407,550.832L631.589,550.863L631.719,550.887L631.814,550.902L631.947,550.925L632.123,550.954L632.25,550.975L632.349,550.991C634.087,551.268 635.84,551.454 637.607,551.545C510.989,601.794 416.351,567.277 455.749,400.859C481.674,314.11 553.206,251.412 637.607,250.173Z" style="fill:url(#_Linear6);"/>
    </g>
    <defs>
        <linearGradient id="_Linear1" x1="0" y1="0" x2="1" y2="0" gradientUnits="userSpaceOnUse" gradientTransform="matrix(-409.295,474.715,-474.715,-409.295,932.017,174.232)"><stop offset="0" style="stop-color:rgb(255,126,0);stop-opacity:1"/><stop offset="0.56" style="stop-color:rgb(247,114,38);stop-opacity:1"/><stop offset="1" style="stop-color:rgb(214,68,188);stop-opacity:1"/></linearGradient>
        <linearGradient id="_Linear2" x1="0" y1="0" x2="1" y2="0" gradientUnits="userSpaceOnUse" gradientTransform="matrix(-356.527,431.878,-431.878,-356.527,755.636,134.155)"><stop offset="0" style="stop-color:rgb(142,93,250);stop-opacity:1"/><stop offset="0.5" style="stop-color:rgb(35,151,218);stop-opacity:1"/><stop offset="1" style="stop-color:rgb(0,170,207);stop-opacity:1"/></linearGradient>
        <linearGradient id="_Linear3" x1="0" y1="0" x2="1" y2="0" gradientUnits="userSpaceOnUse" gradientTransform="matrix(-409.295,474.715,-474.715,-409.295,932.017,174.232)"><stop offset="0" style="stop-color:rgb(255,126,0);stop-opacity:1"/><stop offset="0.56" style="stop-color:rgb(247,114,38);stop-opacity:1"/><stop offset="1" style="stop-color:rgb(214,68,188);stop-opacity:1"/></linearGradient>
        <linearGradient id="_Linear4" x1="0" y1="0" x2="1" y2="0" gradientUnits="userSpaceOnUse" gradientTransform="matrix(-356.527,431.878,-431.878,-356.527,755.636,134.155)"><stop offset="0" style="stop-color:rgb(142,93,250);stop-opacity:1"/><stop offset="0.5" style="stop-color:rgb(35,151,218);stop-opacity:1"/><stop offset="1" style="stop-color:rgb(0,170,207);stop-opacity:1"/></linearGradient>
        <linearGradient id="_Linear5" x1="0" y1="0" x2="1" y2="0" gradientUnits="userSpaceOnUse" gradientTransform="matrix(-356.527,431.878,-431.878,-356.527,755.636,134.155)"><stop offset="0" style="stop-color:rgb(142,93,250);stop-opacity:1"/><stop offset="0.5" style="stop-color:rgb(35,151,218);stop-opacity:1"/><stop offset="1" style="stop-color:rgb(0,170,207);stop-opacity:1"/></linearGradient>
        <linearGradient id="_Linear6" x1="0" y1="0" x2="1" y2="0" gradientUnits="userSpaceOnUse" gradientTransform="matrix(-409.295,474.715,-474.715,-409.295,932.017,174.232)"><stop offset="0" style="stop-color:rgb(255,126,0);stop-opacity:1"/><stop offset="0.56" style="stop-color:rgb(247,114,38);stop-opacity:1"/><stop offset="1" style="stop-color:rgb(214,68,188);stop-opacity:1"/></linearGradient>
    </defs>
</svg>
