<svg width="83" height="27" viewBox="0 0 83 27" fill="none" xmlns="http://www.w3.org/2000/svg">
<path d="M47.1611 7.6297V25.6345V25.6867H61.8428V21.8039H51.3589V10.3852H61.8428V6.50244H47.1611V7.6297Z" fill="#27282C"/>
<path d="M82.9891 21.8039L72.778 10.3852H82.9051V6.50244H67.0586V10.3852L77.4585 21.8039H67.0586V25.6867H82.9996V21.8039H82.9891Z" fill="#27282C"/>
<path d="M16.2978 7.76556C14.5872 6.46086 12.4463 5.67804 10.1271 5.67804C4.53357 5.67804 0 10.1871 0 15.7503C0 21.3135 4.53357 25.8226 10.1271 25.8226C12.4463 25.8226 14.5872 25.0502 16.2978 23.735V25.7182H20.4955V0H16.2978V7.76556ZM10.1271 21.8041C6.75838 21.8041 4.02984 19.0903 4.02984 15.7399C4.02984 12.3894 6.75838 9.67563 10.1271 9.67563C13.4958 9.67563 16.2243 12.3894 16.2243 15.7399C16.2138 19.0903 13.4853 21.8041 10.1271 21.8041Z" fill="#27282C"/>
<path d="M33.9703 5.86566C28.3768 5.86566 23.8433 10.3747 23.8433 15.9379C23.8433 21.5011 28.3768 26.0102 33.9703 26.0102C39.5638 26.0102 44.0974 21.5011 44.0974 15.9379C44.0974 10.3747 39.5638 5.86566 33.9703 5.86566ZM33.9703 21.9917C30.6016 21.9917 27.8731 19.2779 27.8731 15.9275C27.8731 12.577 30.6016 9.86325 33.9703 9.86325C37.339 9.86325 40.0676 12.577 40.0676 15.9275C40.0676 19.2779 37.339 21.9917 33.9703 21.9917Z" fill="#27282C"/>
</svg>
